<svg width="91" height="90" viewBox="0 0 91 90" fill="none" xmlns="http://www.w3.org/2000/svg">
<rect y="0.510986" width="91" height="89.1748" rx="44.5874" fill="#2EB07A"/>
<path fill-rule="evenodd" clip-rule="evenodd" d="M43.3815 40.2745L42.9548 48.2763C42.9395 48.604 42.5585 48.7717 42.2994 48.5659L37.5973 44.7479C37.2239 44.4431 36.6752 44.4735 36.3323 44.8165C35.9893 45.1594 35.9589 45.7081 36.2637 46.0815L42.5509 53.8167C42.6118 53.8929 42.6423 53.9919 42.6423 54.091L41.5068 75.3683C41.4916 75.5969 41.6745 75.7951 41.9107 75.7951H49.059C49.2877 75.7951 49.4706 75.6045 49.4629 75.3683L48.3274 54.0986C48.3274 53.9996 48.3503 53.9005 48.4189 53.8243L54.706 46.0815C55.0109 45.7081 54.9804 45.1594 54.6375 44.8165C54.2945 44.4735 53.7458 44.4431 53.3724 44.7479L48.6704 48.5659C48.4189 48.7717 48.0302 48.604 48.015 48.2763L47.6111 40.6555C47.6035 40.4421 47.4206 40.2745 47.2072 40.2745H43.3663H43.3815ZM38.8395 54.0453C39.9674 54.8607 39.8531 56.7507 38.1232 57.2917C37.7421 57.4061 37.3306 57.3298 37.0029 57.1012C34.1451 55.1046 31.775 52.1172 30.1442 48.4973C28.6429 45.1518 27.7817 41.2652 27.7817 37.1347C27.7817 30.9542 29.7098 25.3377 32.8191 21.2453C36.0351 17.0158 40.5161 14.4019 45.5001 14.4019C50.4841 14.4019 54.9652 17.0158 58.1811 21.2453C61.2904 25.3377 63.2185 30.9619 63.2185 37.1347C63.2185 41.2652 62.3573 45.1518 60.856 48.4973C59.2328 52.1172 56.8551 55.1046 54.0049 57.1012C53.6772 57.3298 53.2581 57.4061 52.8847 57.2917C51.1548 56.7507 51.0404 54.8683 52.1683 54.0529C54.4165 52.4144 56.3064 49.991 57.6248 47.0494C58.9204 44.1611 59.6672 40.7698 59.6672 37.1347C59.6672 31.7392 58.0211 26.8771 55.3691 23.3868C52.8237 20.0336 49.3334 17.9608 45.5154 17.9608C41.6973 17.9608 38.2146 20.0336 35.6617 23.3868C33.0096 26.8847 31.3635 31.7392 31.3635 37.1347C31.3635 40.7698 32.1104 44.1611 33.4059 47.0494C34.7319 49.991 36.6143 52.4144 38.8624 54.0529L38.8395 54.0453Z" fill="white"/>
</svg>
