<svg width="95" height="94" viewBox="0 0 95 94" fill="none" xmlns="http://www.w3.org/2000/svg">
<path d="M42.7977 3.41641C45.6016 1.37926 49.3984 1.37926 52.2023 3.41641L87.4974 29.0598C90.3013 31.0969 91.4745 34.7079 90.4035 38.0041L76.922 79.4959C75.851 82.7921 72.7794 85.0238 69.3136 85.0238H25.6864C22.2206 85.0238 19.149 82.7921 18.078 79.4959L4.59645 38.0041C3.52546 34.7079 4.69873 31.0969 7.50262 29.0598L42.7977 3.41641Z" fill="#F98181"/>
<path d="M49.5 34C50.6667 36.2639 53.7 39.4333 56.5 34" stroke="black" stroke-linecap="round" stroke-linejoin="round"/>
<rect x="45.5" y="26" width="4" height="4" rx="2" fill="black"/>
<rect x="56.5" y="26" width="4" height="4" rx="2" fill="black"/>
</svg>
