<svg width="220" height="208" viewBox="0 0 220 208" fill="none" xmlns="http://www.w3.org/2000/svg">
<path d="M161.083 156.164C161.083 156.164 175.743 146.251 185.261 138.323C194.779 130.396 214.138 112.688 216.11 108.392C218.082 104.095 222.842 105.136 214.944 94.4456C207.057 83.7573 175.939 43.332 171.676 37.4617C167.413 31.5913 134.234 -1.39419 122.855 0.719786C111.474 2.84482 54.5214 1.63862 28.1818 46.3824C1.84686 91.1326 -1.6041 94.1707 1.60487 107.78C4.81385 121.389 19.8135 144.035 20.2746 146.192C20.7356 148.349 38.5565 177.91 40.9071 181.868C43.2576 185.826 56.0888 209.384 65.5385 207.533C74.9883 205.683 89.9429 196.929 97.553 193.585C105.163 190.24 161.085 156.153 161.085 156.153L161.083 156.164Z" fill="#21A37D"/>
</svg>
