<svg width="158" height="174" viewBox="0 0 158 174" fill="none" xmlns="http://www.w3.org/2000/svg">
<path d="M153.951 49.5401C153.951 48.7843 153.957 48.0285 153.981 47.2667C154.196 39.913 155.631 32.5893 155.249 25.2535C154.639 13.4971 148.331 6.28139 138.746 2.40659C128.569 -1.70215 117.172 0.0193026 106.678 3.32428C102.319 4.69786 97.9485 6.37736 94.2891 9.37643C88.9316 13.7671 85.631 20.515 81.4873 26.3152C70.3238 41.9644 50.3407 39.5591 35.1232 46.7029C26.3276 50.8356 18.8474 57.9194 12.4255 65.813C8.32967 70.8455 4.55071 76.3458 2.39216 82.6858C0.329273 88.7559 -0.161049 95.3419 0.0422497 101.796C0.395033 113.33 2.94824 124.901 8.42534 134.624C16.5095 148.971 29.0362 152.336 41.282 160.134C54.329 168.441 69.2894 172.88 84.3215 173.816C100.98 174.853 118.518 171.644 132.162 160.722C137.885 156.145 146.154 148.234 148.367 140.814C153.413 123.905 158.52 106.546 157.957 88.8099C157.539 75.614 153.975 62.706 153.939 49.5281L153.951 49.5401Z" fill="#FFAE1B"/>
</svg>
