<svg width="100" height="45" viewBox="0 0 100 45" fill="none" xmlns="http://www.w3.org/2000/svg">
<ellipse cx="15.5085" cy="17.0778" rx="15.5085" ry="17.0778" fill="#D05A5C"/>
<path fill-rule="evenodd" clip-rule="evenodd" d="M14.0228 19.3857L13.7223 25.0209C13.7115 25.2516 13.4432 25.3697 13.2607 25.2248L9.94941 22.536C9.68643 22.3214 9.30002 22.3428 9.05852 22.5843C8.81701 22.8258 8.79555 23.2123 9.01022 23.4752L13.4378 28.9225C13.4807 28.9762 13.5022 29.0459 13.5022 29.1157L12.7026 44.0997C12.6918 44.2607 12.8206 44.4003 12.987 44.4003H18.021C18.182 44.4003 18.3108 44.2661 18.3055 44.0997L17.5058 29.1211C17.5058 29.0513 17.5219 28.9815 17.5702 28.9279L21.9978 23.4752C22.2125 23.2123 22.191 22.8258 21.9495 22.5843C21.708 22.3428 21.3216 22.3214 21.0586 22.536L17.7473 25.2248C17.5702 25.3697 17.2965 25.2516 17.2858 25.0209L17.0014 19.6541C16.996 19.5038 16.8672 19.3857 16.7169 19.3857H14.0121H14.0228Z" fill="#745435"/>
<ellipse cx="49.5251" cy="17.0778" rx="15.5085" ry="17.0778" fill="#9FB844"/>
<path fill-rule="evenodd" clip-rule="evenodd" d="M48.0394 19.3857L47.7389 25.0209C47.7281 25.2516 47.4598 25.3697 47.2773 25.2248L43.966 22.536C43.703 22.3214 43.3166 22.3428 43.0751 22.5843C42.8336 22.8258 42.8122 23.2123 43.0268 23.4752L47.4544 28.9225C47.4973 28.9762 47.5188 29.0459 47.5188 29.1157L46.7192 44.0997C46.7084 44.2607 46.8372 44.4003 47.0036 44.4003H52.0376C52.1986 44.4003 52.3274 44.2661 52.3221 44.0997L51.5224 29.1211C51.5224 29.0513 51.5385 28.9815 51.5868 28.9279L56.0144 23.4752C56.2291 23.2123 56.2076 22.8258 55.9661 22.5843C55.7246 22.3428 55.3382 22.3214 55.0752 22.536L51.7639 25.2248C51.5868 25.3697 51.3131 25.2516 51.3024 25.0209L51.018 19.6541C51.0126 19.5038 50.8838 19.3857 50.7335 19.3857H48.0287H48.0394Z" fill="#745435"/>
<ellipse cx="83.5427" cy="17.0778" rx="15.5085" ry="17.0778" fill="#2EB07A"/>
<path fill-rule="evenodd" clip-rule="evenodd" d="M82.0565 19.3857L81.7559 25.0209C81.7452 25.2516 81.4769 25.3697 81.2944 25.2248L77.9831 22.536C77.7201 22.3214 77.3337 22.3428 77.0922 22.5843C76.8507 22.8258 76.8292 23.2123 77.0439 23.4752L81.4715 28.9225C81.5144 28.9762 81.5359 29.0459 81.5359 29.1157L80.7363 44.0997C80.7255 44.2607 80.8543 44.4003 81.0207 44.4003H86.0547C86.2157 44.4003 86.3445 44.2661 86.3392 44.0997L85.5395 29.1211C85.5395 29.0513 85.5556 28.9815 85.6039 28.9279L90.0315 23.4752C90.2462 23.2123 90.2247 22.8258 89.9832 22.5843C89.7417 22.3428 89.3553 22.3214 89.0923 22.536L85.781 25.2248C85.6039 25.3697 85.3302 25.2516 85.3195 25.0209L85.035 19.6541C85.0297 19.5038 84.9009 19.3857 84.7506 19.3857H82.0457H82.0565Z" fill="#745435"/>
</svg>
