<svg width="1807" height="1201" viewBox="0 0 1807 1201" fill="none" xmlns="http://www.w3.org/2000/svg">
<path d="M236.1 169.931L393.8 477.501C401 491.541 387.31 507.161 372.45 501.861L12.37 373.571C-0.119957 369.121 -3.25998 352.911 6.66002 344.121L209.04 164.841C217.56 157.291 230.9 159.811 236.09 169.931H236.1Z" fill="#0F1E2E"/>
<path d="M168.721 290.709C88.8508 290.709 23.8809 225.729 23.8809 145.869C23.8809 66.0093 88.8608 1.0293 168.721 1.0293C248.581 1.0293 313.561 66.0093 313.561 145.869C313.561 225.729 248.591 290.709 168.721 290.709ZM168.721 31.0293C105.401 31.0293 53.8809 82.5493 53.8809 145.869C53.8809 209.189 105.401 260.709 168.721 260.709C232.041 260.709 283.561 209.189 283.561 145.869C283.561 82.5493 232.041 31.0293 168.721 31.0293Z" fill="#3363FF"/>
<path d="M1 542.562V1089.55C1 1106.98 15.13 1121.11 32.56 1121.11H774.77C795.97 1121.11 811.15 1100.63 804.96 1080.35C784 1011.71 727.31 877.332 598.73 844.452C431.88 801.782 360.6 761.192 233.4 625.782C157.06 544.512 81.49 519.242 38.13 511.502C18.78 508.042 1.01001 522.912 1.01001 542.572L1 542.562Z" fill="#FFC042"/>
<mask id="mask0_118_27940" style="mask-type:luminance" maskUnits="userSpaceOnUse" x="536" y="806" width="1059" height="387">
<path d="M1594.27 1007.6C1595.84 901.147 1360.28 811.378 1068.16 807.095C776.03 802.811 537.949 885.636 536.389 992.089C534.828 1098.54 770.378 1188.31 1062.51 1192.59C1354.63 1196.88 1592.71 1114.05 1594.27 1007.6Z" fill="white"/>
</mask>
<g mask="url(#mask0_118_27940)">
<path d="M1594.27 1007.6C1595.84 901.147 1360.28 811.378 1068.16 807.095C776.03 802.811 537.949 885.636 536.389 992.089C534.828 1098.54 770.378 1188.31 1062.51 1192.59C1354.63 1196.88 1592.71 1114.05 1594.27 1007.6Z" fill="#0F1E2E"/>
<path d="M647.8 1405.56C642.26 1405.56 636.93 1402.48 634.32 1397.16C630.67 1389.72 633.74 1380.74 641.18 1377.09C821.91 1288.43 995.95 1181.93 1164.27 1078.94C1241.67 1031.58 1321.7 982.611 1401.62 935.821C1451.72 906.491 1498.64 876.361 1522.16 830.431C1526.64 821.681 1528.18 815.101 1526.73 810.871C1523.52 801.511 1505.25 799.931 1489.22 801.581C1312.64 819.691 1129.4 885.761 931.58 1002.93C938.65 1019.35 941.23 1038.62 938.33 1058.1C933.55 1090.3 915.94 1118.11 901.15 1138.74C836.68 1228.6 742.88 1295.72 637.01 1327.72C627.27 1330.67 597.61 1339.63 578.43 1320.69C561.03 1303.51 563.3 1275.62 584.5 1246.08C649.53 1155.49 742.68 1088.01 825.23 1033.94C846.36 1020.1 867.33 1006.81 888.14 994.071C869.57 980.521 841.96 982.291 817.39 985.821C687.88 1004.4 566.28 1058.49 465.74 1142.21C459.37 1147.51 449.92 1146.65 444.61 1140.28C439.31 1133.91 440.17 1124.46 446.54 1119.15C498.35 1076.01 556.23 1040.07 618.59 1012.34C680.95 984.611 746.4 965.691 813.13 956.111C843.68 951.721 878.6 949.931 905.86 969.851C909.14 972.241 912.2 974.921 915.05 977.841C1117.17 857.941 1304.81 790.321 1486.16 771.721C1495.91 770.721 1510.29 770.271 1523.36 773.791C1543.75 779.291 1551.88 791.691 1555.11 801.131C1561.42 819.561 1551.96 838.021 1548.86 844.091C1521.65 897.211 1470.85 930.031 1416.77 961.691C1337.09 1008.34 1257.19 1057.23 1179.92 1104.51C1011.02 1207.86 836.37 1314.73 654.38 1404.01C652.25 1405.05 650 1405.55 647.78 1405.55L647.8 1405.56ZM905.51 1018.62C884.41 1031.51 863.13 1044.99 841.68 1059.03C761.45 1111.58 671.05 1176.98 608.89 1263.57C599.78 1276.26 592.97 1292.86 599.53 1299.33C603.78 1303.52 613.74 1303.41 628.35 1298.99C727.92 1268.89 816.16 1205.76 876.79 1121.24C889.62 1103.36 904.84 1079.51 908.68 1053.68C910.3 1042.8 909.51 1030.09 905.51 1018.62Z" fill="#FFC042"/>
<path d="M1192.95 1146.13C1175.04 1146.13 1158.69 1139.12 1148.84 1127.11C1135.68 1111.06 1134.15 1086.8 1144.96 1065.3C1153.68 1047.95 1168.41 1035.12 1180.25 1024.81C1298.13 922.142 1420.94 822.052 1545.27 727.302C1551.86 722.282 1561.27 723.552 1566.29 730.142C1571.31 736.732 1570.04 746.142 1563.45 751.162C1439.64 845.512 1317.34 945.192 1199.95 1047.43C1189.58 1056.46 1177.83 1066.7 1171.76 1078.77C1167.41 1087.43 1165.64 1100.29 1172.03 1108.08C1176.37 1113.37 1184.92 1116.43 1194.37 1116.09C1204.46 1115.72 1214.57 1112.23 1226.73 1107.7C1385.06 1048.78 1537.2 968.262 1684.33 890.392C1691.65 886.522 1700.73 889.312 1704.6 896.632C1708.48 903.952 1705.68 913.032 1698.36 916.902C1550.38 995.222 1397.36 1076.21 1237.19 1135.81C1222.96 1141.11 1210 1145.53 1195.46 1146.06C1194.62 1146.09 1193.78 1146.11 1192.95 1146.11V1146.13Z" fill="#FFC042"/>
<path d="M1158.69 1340.86C1154.7 1340.86 1150.71 1339.28 1147.76 1336.14C1142.08 1330.11 1142.38 1320.61 1148.41 1314.94C1340.73 1134.06 1556.98 980.541 1791.15 858.621C1798.5 854.801 1807.56 857.651 1811.38 865.001C1815.21 872.351 1812.35 881.411 1805 885.231C1573.26 1005.87 1359.27 1157.8 1168.96 1336.79C1166.06 1339.51 1162.37 1340.86 1158.69 1340.86Z" fill="#FFC042"/>
</g>
<path d="M414.933 1171.64C443.818 1159.68 457.535 1126.56 445.57 1097.68C433.606 1068.79 400.49 1055.07 371.606 1067.04C342.721 1079 329.004 1112.12 340.968 1141C352.933 1169.89 386.048 1183.61 414.933 1171.64Z" fill="#3363FF"/>
<path d="M534.231 20.1691L679.295 97.3069C696.759 106.593 703.127 128.447 693.373 145.657C662.548 200.076 600.91 308.554 584.885 334.237C560.744 372.941 573.997 407.749 589.381 415.96C611.082 427.553 638.071 428.575 684.331 380.715C728.716 334.801 798.718 263.724 916.333 260.093C1018.83 256.923 1122.87 327.24 1148.41 423.67C1165.76 489.201 1135.1 614.482 1123.55 667.417C1108.07 738.299 1181.09 750.658 1211.92 700.969C1243.57 649.949 1307.16 543.026 1337.45 491.961C1346.89 476.038 1367.07 470.179 1383.58 478.554L1517.26 546.411C1534.91 555.373 1541.69 577.144 1532.23 594.532C1498.42 656.711 1424.53 792.343 1398.91 837.288C1347.04 928.256 1243.29 998.313 1116.04 976.003C972.734 950.885 922.479 834.673 911.86 782.674C901.24 730.675 903.648 675.363 915.776 601.463C927.445 530.372 874.753 522.842 846.472 554.258C811.952 592.592 784.257 621.019 701.332 662.108C610.149 707.29 463.834 676.903 391.908 592.634C319.982 508.374 289.557 394.394 351.161 263.529C397.683 164.699 458.954 73.4391 489 30.8982C499.216 16.4317 518.588 11.8238 534.213 20.1374L534.231 20.1691Z" fill="#33B570"/>
<path d="M774.439 453.621C826.398 453.621 868.519 411.5 868.519 359.541C868.519 307.582 826.398 265.461 774.439 265.461C722.48 265.461 680.359 307.582 680.359 359.541C680.359 411.5 722.48 453.621 774.439 453.621Z" fill="#FFC042"/>
<path d="M361.73 899H301C292.72 899 286 892.28 286 884C286 875.72 292.72 869 301 869H361.73C370.01 869 376.73 875.72 376.73 884C376.73 892.28 370.01 899 361.73 899Z" fill="white"/>
<path d="M270.861 749.801H68.9707C60.6907 749.801 53.9707 743.081 53.9707 734.801C53.9707 726.521 60.6907 719.801 68.9707 719.801H270.861C279.141 719.801 285.861 726.521 285.861 734.801C285.861 743.081 279.141 749.801 270.861 749.801Z" fill="white"/>
<path d="M1577.94 797.77C1572.47 797.77 1567.19 794.76 1564.55 789.55C1560.8 782.16 1563.76 773.13 1571.15 769.39C1627 741.08 1648.04 702.55 1633.7 654.87C1630.78 645.16 1625.38 636.54 1618.43 628.72C1610.39 629.14 1602.34 629.35 1594.31 629.35C1541.87 629.35 1489.59 620.45 1439.76 602.81C1429.46 599.16 1409.1 587.54 1405.8 569.67C1404.76 564.05 1404.69 553.2 1415.89 543.66C1421.82 538.61 1428.57 536.38 1434.97 534.72C1477.53 523.72 1542.12 540.03 1577.56 561.45L1579.14 562.4C1595.63 572.36 1614.22 583.59 1629.98 597.87C1646.59 596.5 1663.16 594.16 1679.6 590.86C1704.59 585.84 1749.33 572.16 1768.19 536.95C1782.09 511.01 1778.46 477.56 1758.72 449.65C1738.6 421.22 1705.71 398.99 1658.78 382.26C1648.17 395.24 1633.66 405.44 1615.81 412.33C1596.27 419.88 1574 423.09 1551.63 423.09C1513.84 423.09 1475.73 413.91 1449.83 400.93C1431.09 391.53 1422.5 375.29 1428.47 360.5C1433.43 348.21 1446.15 343.97 1450.94 342.37C1501.08 325.66 1560.02 324.81 1621.38 339.9C1629.58 341.92 1637.5 344.05 1645.14 346.31C1656.73 313.88 1634.24 275.8 1605.35 257.39C1571.83 236.03 1528.42 231.24 1490.12 227.01C1481.89 226.1 1475.95 218.69 1476.85 210.46C1477.76 202.23 1485.18 196.29 1493.4 197.19C1534.96 201.77 1582.06 206.97 1621.47 232.09C1659.67 256.43 1690.4 307.68 1673.62 355.74C1724.08 374.48 1760.17 399.75 1783.2 432.3C1809.55 469.54 1813.93 515.06 1794.63 551.09C1784.5 570 1768.5 585.81 1747.07 598.07C1729.56 608.09 1708.85 615.55 1685.51 620.24C1674.81 622.39 1664.05 624.16 1653.27 625.54C1657.07 631.91 1660.19 638.76 1662.43 646.19C1681.04 708.03 1653.44 761.27 1584.72 796.11C1582.55 797.21 1580.23 797.73 1577.95 797.73L1577.94 797.77ZM1436.47 565.79C1439.04 568.71 1444.81 572.78 1449.77 574.54C1492.34 589.61 1536.83 597.86 1581.59 599.17C1575.6 595.33 1569.53 591.67 1563.62 588.1L1562.04 587.14C1532.3 569.16 1475.88 555.14 1442.48 563.78C1441.12 564.13 1438.31 564.86 1436.47 565.79ZM1458.93 371.38C1460.05 372.28 1461.51 373.26 1463.26 374.14C1499.24 392.18 1562.09 400.94 1604.99 384.37C1613.33 381.15 1620.51 377.1 1626.53 372.25C1622.5 371.16 1618.4 370.1 1614.2 369.06C1558.35 355.32 1505.16 355.94 1460.41 370.86C1459.86 371.04 1459.37 371.21 1458.93 371.38Z" fill="#0F1E2E"/>
<path d="M1149.28 157.869C1147.83 157.869 1146.35 157.659 1144.89 157.209L947.27 96.8692C939.35 94.4492 934.89 86.0692 937.3 78.1392C939.72 70.2192 948.1 65.7492 956.03 68.1692L1153.65 128.509C1161.57 130.929 1166.03 139.309 1163.62 147.239C1161.65 153.699 1155.7 157.859 1149.28 157.859V157.869Z" fill="white"/>
<path d="M1149.27 157.869C1145.23 157.869 1141.21 156.249 1138.25 153.059C1132.63 146.979 1133 137.489 1139.08 131.859L1276.22 5.01918C1282.3 -0.600818 1291.79 -0.230801 1297.42 5.8492C1303.04 11.9292 1302.67 21.4192 1296.59 27.0492L1159.45 153.889C1156.56 156.559 1152.91 157.879 1149.27 157.879V157.869Z" fill="white"/>
<path d="M782.53 690.14C742.03 690.14 709.08 657.19 709.08 616.69C709.08 576.19 742.03 543.24 782.53 543.24C823.03 543.24 855.98 576.19 855.98 616.69C855.98 657.19 823.03 690.14 782.53 690.14ZM782.53 573.25C758.57 573.25 739.08 592.74 739.08 616.7C739.08 640.66 758.57 660.15 782.53 660.15C806.49 660.15 825.98 640.66 825.98 616.7C825.98 592.74 806.49 573.25 782.53 573.25Z" fill="#FF7242"/>
</svg>
