<svg width="40" height="40" viewBox="0 0 40 40" fill="none" xmlns="http://www.w3.org/2000/svg">
<g clip-path="url(#clip0_100_131)">
<path d="M28.6833 10.941C29.2756 10.1293 29.0961 8.98062 28.2844 8.38836C27.4727 7.7961 26.324 7.97563 25.7318 8.78731L22.1351 13.7165C21.5429 14.5281 21.7224 15.6768 22.5341 16.2691C23.3458 16.8613 24.4945 16.6818 25.0867 15.8701L28.6833 10.941Z" fill="#222222"/>
<path d="M15.8708 14.7086L10.9416 11.112C10.1299 10.5197 8.98124 10.6993 8.38899 11.5109C7.79673 12.3226 7.97626 13.4713 8.78794 14.0636L13.7171 17.6602C14.5288 18.2525 15.6775 18.0729 16.2697 17.2612C16.862 16.4496 16.6824 15.3009 15.8708 14.7086Z" fill="#222222"/>
<path d="M17.6457 26.0679C18.238 25.2563 18.0585 24.1076 17.2468 23.5153C16.4351 22.9231 15.2864 23.1026 14.6942 23.9143L11.0975 28.8434C10.5053 29.6551 10.6848 30.8038 11.4965 31.396C12.3082 31.9883 13.4569 31.8088 14.0491 30.9971L17.6457 26.0679Z" fill="#222222"/>
<path d="M30.9977 25.7457L26.0686 22.1491C25.2569 21.5568 24.1082 21.7364 23.5159 22.5481C22.9237 23.3597 23.1032 24.5084 23.9149 25.1007L28.844 28.6973C29.6557 29.2896 30.8044 29.11 31.3967 28.2984C31.9889 27.4867 31.8094 26.338 30.9977 25.7457Z" fill="#222222"/>
</g>
<defs>
<clipPath id="clip0_100_131">
<rect width="28.4812" height="28.4812" fill="white" transform="translate(16.7881) rotate(36.117)"/>
</clipPath>
</defs>
</svg>
