<svg width="100" height="69" viewBox="0 0 100 69" fill="none" xmlns="http://www.w3.org/2000/svg">
<path fill-rule="evenodd" clip-rule="evenodd" d="M70.4693 18.6257L70.1621 24.3862C70.1511 24.6222 69.8768 24.7428 69.6903 24.5947L66.3053 21.8461C66.0364 21.6267 65.6414 21.6486 65.3946 21.8955C65.1477 22.1424 65.1257 22.5374 65.3452 22.8062L69.8713 28.3747C69.9152 28.4296 69.9371 28.5009 69.9371 28.5722L69.1197 43.8898C69.1087 44.0543 69.2404 44.197 69.4105 44.197H74.5565C74.7211 44.197 74.8528 44.0598 74.8473 43.8898L74.0299 28.5777C74.0299 28.5064 74.0463 28.4351 74.0957 28.3802L78.6218 22.8062C78.8413 22.5374 78.8193 22.1424 78.5725 21.8955C78.3256 21.6486 77.9306 21.6267 77.6617 21.8461L74.2767 24.5947C74.0957 24.7428 73.8159 24.6222 73.8049 24.3862L73.5142 18.9C73.5087 18.7464 73.377 18.6257 73.2234 18.6257H70.4583H70.4693ZM67.1995 28.5393C68.0115 29.1263 67.9292 30.4869 66.6838 30.8764C66.4095 30.9587 66.1132 30.9039 65.8773 30.7393C63.82 29.3019 62.1138 27.1513 60.9397 24.5453C59.859 22.1369 59.239 19.3389 59.239 16.3654C59.239 11.9161 60.627 7.87272 62.8654 4.92662C65.1806 1.88177 68.4065 0 71.9945 0C75.5825 0 78.8084 1.88177 81.1235 4.92662C83.3619 7.87272 84.7499 11.9216 84.7499 16.3654C84.7499 19.3389 84.13 22.1369 83.0492 24.5453C81.8806 27.1513 80.1689 29.3019 78.1171 30.7393C77.8812 30.9039 77.5794 30.9587 77.3106 30.8764C76.0653 30.4869 75.983 29.1318 76.7949 28.5448C78.4134 27.3653 79.7739 25.6206 80.7231 23.503C81.6557 21.4237 82.1934 18.9823 82.1934 16.3654C82.1934 12.4811 81.0083 8.98094 79.0991 6.46825C77.2667 4.05432 74.754 2.56206 72.0054 2.56206C69.2569 2.56206 66.7497 4.05432 64.9118 6.46825C63.0026 8.98643 61.8175 12.4811 61.8175 16.3654C61.8175 18.9823 62.3552 21.4237 63.2878 23.503C64.2424 25.6206 65.5975 27.3653 67.216 28.5448L67.1995 28.5393Z" fill="#9FB844"/>
<path d="M55.5298 23.3707C55.5298 25.5926 55.0635 27.6884 54.257 29.4879C53.3847 31.4355 52.1009 33.0484 50.5648 34.1237C50.3947 34.2444 50.1643 34.2938 49.9613 34.228C49.0286 33.9427 48.9683 32.9222 49.5718 32.4833C50.7842 31.6055 51.8047 30.2943 52.5124 28.7143C53.2091 27.1562 53.6096 25.3348 53.6096 23.3762C53.6096 20.4685 52.7209 17.8516 51.2944 15.9753C49.9174 14.1703 48.0466 13.0512 45.9838 13.0512C43.921 13.0512 42.0502 14.1703 40.6786 15.9753C39.2522 17.8571 38.3634 20.474 38.3634 23.3762C38.3634 25.3348 38.7639 27.1617 39.4607 28.7143C40.1739 30.2998 41.1888 31.6055 42.4013 32.4833C43.0102 32.9222 42.9444 33.9427 42.0172 34.2334C41.8143 34.2938 41.5838 34.2499 41.4138 34.1292C39.8721 33.0484 38.5938 31.441 37.7215 29.4934C36.9151 27.6939 36.4487 25.5981 36.4487 23.3762C36.4487 20.0516 37.4856 17.0232 39.1589 14.8177C40.8926 12.5409 43.3065 11.1255 45.9838 11.1255C48.6611 11.1255 51.0805 12.5354 52.8141 14.8177C54.4874 17.0232 55.5243 20.0516 55.5243 23.3762L55.5298 23.3707Z" fill="#745435"/>
<path d="M50.9207 27.5129C51.1072 27.6994 51.1237 27.9957 50.9591 28.1932L47.5686 32.3627C47.5357 32.4011 47.5192 32.456 47.5247 32.5108L48.1337 43.9661C48.1392 44.0923 48.0459 44.1965 47.9197 44.1965H44.0684C43.9477 44.1965 43.8489 44.0923 43.8544 43.9661L44.4634 32.5108C44.4634 32.456 44.4524 32.4066 44.414 32.3627L41.029 28.1932C40.9577 28.0999 40.9138 27.9902 40.9138 27.875C40.9138 27.7433 40.9687 27.6117 41.0674 27.5129C41.254 27.3264 41.5502 27.3099 41.7477 27.4745L44.2824 29.5318C44.4195 29.647 44.6225 29.5538 44.6335 29.3782L44.8639 25.0715H46.9267C47.0419 25.0715 47.1352 25.1593 47.1462 25.2745L47.3656 29.3782C47.3711 29.5538 47.5851 29.647 47.7167 29.5318L50.2514 27.4745C50.3446 27.4032 50.4544 27.3593 50.5696 27.3593C50.7012 27.3593 50.8329 27.4141 50.9317 27.5129H50.9207Z" fill="#745435"/>
<path d="M30.5783 27.4533C30.5783 29.2419 30.2052 30.9261 29.5578 32.3745C28.8556 33.9435 27.8242 35.2328 26.5898 36.0996C26.4526 36.1984 26.2716 36.2368 26.107 36.1819C25.3554 35.9515 25.306 35.1341 25.7943 34.7774C26.7708 34.0697 27.5883 33.0164 28.1588 31.7436C28.7184 30.4927 29.0421 29.0224 29.0421 27.4533C29.0421 25.1162 28.3289 23.015 27.1823 21.5008C26.0796 20.047 24.5708 19.1472 22.914 19.1472C21.2572 19.1472 19.7539 20.047 18.6457 21.5008C17.4991 23.0095 16.7859 25.1162 16.7859 27.4533C16.7859 29.0279 17.1096 30.4927 17.6692 31.7436C18.2452 33.0164 19.0572 34.0642 20.0337 34.7774C20.522 35.1286 20.4726 35.946 19.721 36.1819C19.5564 36.2313 19.3754 36.1929 19.2382 36.0996C17.9984 35.2328 16.9724 33.9381 16.2702 32.369C15.6228 30.9206 15.2498 29.2364 15.2498 27.4479C15.2498 24.7761 16.0837 22.3402 17.4278 20.5681C18.8213 18.7357 20.7579 17.6001 22.914 17.6001C25.0701 17.6001 27.0122 18.7357 28.4057 20.5681C29.7498 22.3402 30.5837 24.7761 30.5837 27.4479L30.5783 27.4533Z" fill="#D05A5C"/>
<path d="M26.8685 30.7832C27.0166 30.9313 27.0276 31.1672 26.8959 31.3318L24.1692 34.6839C24.1418 34.7168 24.1308 34.7607 24.1308 34.8046L24.6191 44.0104C24.6246 44.1147 24.5478 44.197 24.449 44.197H21.3493C21.2506 44.197 21.1738 44.1147 21.1793 44.0104L21.6675 34.8046C21.6675 34.7607 21.6566 34.7168 21.6291 34.6839L18.908 31.3318C18.8476 31.255 18.8147 31.1672 18.8147 31.0739C18.8147 30.9697 18.8586 30.8655 18.9354 30.7832C19.0835 30.635 19.3194 30.6241 19.484 30.7557L21.5194 32.4071C21.6291 32.5003 21.7937 32.4235 21.8047 32.2809L21.9912 28.8191H23.6481C23.7413 28.8191 23.8181 28.8904 23.8236 28.9837L23.9992 32.2809C24.0047 32.4235 24.1747 32.5003 24.2845 32.4071L26.3198 30.7557C26.3967 30.6954 26.4844 30.6625 26.5777 30.6625C26.6819 30.6625 26.7862 30.7064 26.8685 30.7832Z" fill="#D05A5C"/>
<path d="M4.37807 60.2111H9.86579C10.3096 60.2111 10.6325 60.2649 10.8342 60.3725C11.036 60.4666 11.1705 60.6213 11.2377 60.8365C11.305 61.0517 11.3386 61.3409 11.3386 61.704C11.3386 62.0537 11.305 62.3362 11.2377 62.5514C11.1705 62.7666 11.0561 62.9146 10.8947 62.9953C10.6392 63.1298 10.2895 63.197 9.84561 63.197H2.58246C1.64094 63.197 1.08947 62.9415 0.92807 62.4304C0.847368 62.2152 0.807018 61.8722 0.807018 61.4014V50.1839C0.807018 49.8745 0.813743 49.6459 0.827193 49.4979C0.854094 49.3365 0.921345 49.1549 1.02895 48.9532C1.21725 48.59 1.74181 48.4084 2.60263 48.4084C3.54415 48.4084 4.10234 48.6573 4.27719 49.1549C4.34444 49.3836 4.37807 49.7333 4.37807 50.204V60.2111ZM12.6483 54.34C12.6483 54.0306 12.655 53.802 12.6684 53.654C12.6953 53.4926 12.7559 53.3111 12.85 53.1093C13.0383 52.7596 13.5629 52.5847 14.4237 52.5847C15.0693 52.5847 15.5266 52.6991 15.7956 52.9277C16.0243 53.116 16.1453 53.4052 16.1588 53.7953C16.1722 53.9298 16.179 54.1248 16.179 54.3804V61.4418C16.179 61.7511 16.1655 61.9865 16.1386 62.1479C16.1252 62.2959 16.0646 62.4707 15.957 62.6725C15.7822 63.0222 15.2643 63.197 14.4035 63.197C13.5562 63.197 13.0383 63.0154 12.85 62.6523C12.7559 62.4505 12.6953 62.2757 12.6684 62.1277C12.655 61.9798 12.6483 61.7444 12.6483 61.4216V54.34ZM15.957 50.6075C15.8629 50.7959 15.688 50.9304 15.4325 51.0111C15.1769 51.0918 14.8339 51.1321 14.4035 51.1321C13.9866 51.1321 13.6503 51.0918 13.3948 51.0111C13.1392 50.9304 12.9576 50.7891 12.85 50.5874C12.7559 50.3856 12.6953 50.2108 12.6684 50.0628C12.655 49.9014 12.6483 49.666 12.6483 49.3567C12.6483 49.0473 12.655 48.8187 12.6684 48.6707C12.6953 48.5093 12.7559 48.3344 12.85 48.1461C13.0383 47.783 13.5629 47.6014 14.4237 47.6014C15.2711 47.6014 15.7822 47.783 15.957 48.1461C16.0646 48.3479 16.1252 48.5295 16.1386 48.6909C16.1655 48.8388 16.179 49.0675 16.179 49.3768C16.179 49.6862 16.1655 49.9216 16.1386 50.083C16.1252 50.2309 16.0646 50.4058 15.957 50.6075ZM30.9248 56.1356L29.6134 56.0549V58.8391C29.6134 59.2023 29.6672 59.4646 29.7748 59.626C29.8959 59.7874 30.1111 59.8681 30.4205 59.8681C30.7433 59.8681 30.9854 59.8815 31.1468 59.9084C31.3216 59.9219 31.4965 59.9824 31.6713 60.09C31.9941 60.2649 32.1555 60.7154 32.1555 61.4418C32.1555 62.2891 31.9672 62.807 31.5906 62.9953C31.3889 63.0894 31.2073 63.1499 31.0459 63.1768C30.8979 63.1903 30.676 63.197 30.3801 63.197C29.0351 63.197 27.986 62.8473 27.2327 62.1479C26.4795 61.4485 26.1029 60.4128 26.1029 59.0409V56.0549C25.4573 56.1087 24.9193 56.1356 24.4889 56.1356L22.6529 56.0549V58.8391C22.6529 59.2023 22.7067 59.4646 22.8143 59.626C22.9354 59.7874 23.1506 59.8681 23.4599 59.8681C23.7827 59.8681 24.0248 59.8815 24.1863 59.9084C24.3611 59.9219 24.5427 59.9824 24.731 60.09C25.0403 60.2649 25.195 60.7154 25.195 61.4418C25.195 62.2891 25.0067 62.807 24.6301 62.9953C24.4284 63.0894 24.2468 63.1499 24.0854 63.1768C23.9374 63.1903 23.7155 63.197 23.4196 63.197C22.0746 63.197 21.0254 62.8473 20.2722 62.1479C19.519 61.4485 19.1424 60.4128 19.1424 59.0409V56.0549C18.8734 56.0953 18.5909 56.1154 18.295 56.1154C18.0126 56.1154 17.7705 56.0011 17.5687 55.7725C17.3804 55.5438 17.2863 55.1537 17.2863 54.6023C17.2863 54.0508 17.3199 53.654 17.3871 53.4119C17.4544 53.1564 17.5485 52.9748 17.6696 52.8672C17.8848 52.6923 18.1538 52.6049 18.4766 52.6049L19.1424 52.6856V50.6075C19.1424 50.2982 19.1491 50.0695 19.1626 49.9216C19.1895 49.7736 19.2567 49.6122 19.3643 49.4374C19.5392 49.1011 20.057 48.933 20.9178 48.933C21.8325 48.933 22.3772 49.1818 22.552 49.6795C22.6193 49.8947 22.6529 50.2377 22.6529 50.7084V52.6251C23.2851 52.6116 23.8836 52.6049 24.4485 52.6049L26.1029 52.6251V50.6075C26.1029 50.2982 26.1096 50.0695 26.1231 49.9216C26.15 49.7736 26.2105 49.6122 26.3047 49.4374C26.493 49.1011 27.0175 48.933 27.8784 48.933C28.793 48.933 29.331 49.1818 29.4924 49.6795C29.5731 49.8947 29.6134 50.2377 29.6134 50.7084V52.6856C30.2053 52.6318 30.6491 52.6049 30.945 52.6049C31.2544 52.6049 31.483 52.6184 31.631 52.6453C31.7924 52.6587 31.9672 52.7192 32.1555 52.8268C32.5187 53.0017 32.7003 53.5195 32.7003 54.3804C32.7003 55.2277 32.5187 55.7456 32.1555 55.9339C31.9538 56.028 31.7722 56.0885 31.6108 56.1154C31.4629 56.1289 31.2342 56.1356 30.9248 56.1356ZM33.8088 49.3365C33.8088 49.0271 33.8156 48.7985 33.829 48.6505C33.8559 48.4891 33.9164 48.3075 34.0106 48.1058C34.1989 47.7426 34.7235 47.5611 35.5843 47.5611C36.4047 47.5611 36.9159 47.7426 37.1176 48.1058C37.2252 48.3075 37.2857 48.4891 37.2992 48.6505C37.3261 48.8119 37.3395 49.0473 37.3395 49.3567V58.6979C37.3395 59.1821 37.3799 59.4915 37.4606 59.626C37.5413 59.747 37.7161 59.8075 37.9851 59.8075C38.2676 59.8075 38.4559 59.821 38.5501 59.8479C38.6442 59.8613 38.7585 59.9152 38.893 60.0093C39.162 60.1842 39.2966 60.6616 39.2966 61.4418C39.2966 62.2891 39.162 62.807 38.893 62.9953C38.5433 63.2374 37.7094 63.2777 36.3913 63.1163C35.3556 62.9818 34.6831 62.6388 34.3737 62.0874C33.9971 61.4283 33.8088 60.3792 33.8088 58.94V49.3365ZM50.4613 56.6198C50.4613 57.4403 50.2528 58.0523 49.8359 58.4558C49.4323 58.8459 48.9818 59.0409 48.4841 59.0409H43.7025C43.7025 59.4175 43.9244 59.7336 44.3683 59.9891C44.8122 60.2447 45.256 60.3725 45.6999 60.3725C46.48 60.3725 47.092 60.2918 47.5359 60.1304L47.7578 60.0497C48.0806 59.9017 48.3496 59.8277 48.5648 59.8277C48.9952 59.8277 49.3651 60.1304 49.6744 60.7356C49.8493 61.0988 49.9367 61.4081 49.9367 61.6637C49.9367 62.8608 48.5043 63.4593 45.6394 63.4593C44.644 63.4593 43.7563 63.2912 42.9762 62.9549C42.2095 62.6052 41.611 62.1479 41.1806 61.583C40.3332 60.4935 39.9095 59.2763 39.9095 57.9312C39.9095 56.2365 40.4543 54.8847 41.5437 53.876C42.6467 52.8537 44.0186 52.3426 45.6595 52.3426C47.5291 52.3426 48.9011 53.0017 49.7753 54.3198C50.2326 55.0192 50.4613 55.7859 50.4613 56.6198ZM46.2043 57.2049C46.7154 57.2049 46.9709 56.9897 46.9709 56.5593C46.9709 56.2499 46.8499 56.0011 46.6078 55.8128C46.3791 55.6245 46.0429 55.5304 45.599 55.5304C45.1686 55.5304 44.7382 55.7119 44.3078 56.0751C43.8774 56.4248 43.6622 56.8014 43.6622 57.2049H46.2043ZM60.4516 60.2111H65.9393C66.3832 60.2111 66.706 60.2649 66.9077 60.3725C67.1095 60.4666 67.244 60.6213 67.3113 60.8365C67.3785 61.0517 67.4121 61.3409 67.4121 61.704C67.4121 62.0537 67.3785 62.3362 67.3113 62.5514C67.244 62.7666 67.1297 62.9146 66.9683 62.9953C66.7127 63.1298 66.363 63.197 65.9191 63.197H58.656C57.7145 63.197 57.163 62.9415 57.0016 62.4304C56.9209 62.2152 56.8805 61.8722 56.8805 61.4014V50.1839C56.8805 49.8745 56.8873 49.6459 56.9007 49.4979C56.9276 49.3365 56.9949 49.1549 57.1025 48.9532C57.2908 48.59 57.8153 48.4084 58.6762 48.4084C59.6177 48.4084 60.1759 48.6573 60.3507 49.1549C60.418 49.3836 60.4516 49.7333 60.4516 50.204V60.2111ZM78.1631 56.6198C78.1631 57.4403 77.9546 58.0523 77.5377 58.4558C77.1342 58.8459 76.6836 59.0409 76.1859 59.0409H71.4043C71.4043 59.4175 71.6263 59.7336 72.0701 59.9891C72.514 60.2447 72.9578 60.3725 73.4017 60.3725C74.1818 60.3725 74.7938 60.2918 75.2377 60.1304L75.4596 60.0497C75.7824 59.9017 76.0514 59.8277 76.2666 59.8277C76.697 59.8277 77.0669 60.1304 77.3763 60.7356C77.5511 61.0988 77.6386 61.4081 77.6386 61.6637C77.6386 62.8608 76.2061 63.4593 73.3412 63.4593C72.3459 63.4593 71.4581 63.2912 70.678 62.9549C69.9114 62.6052 69.3128 62.1479 68.8824 61.583C68.035 60.4935 67.6114 59.2763 67.6114 57.9312C67.6114 56.2365 68.1561 54.8847 69.2456 53.876C70.3485 52.8537 71.7204 52.3426 73.3614 52.3426C75.2309 52.3426 76.6029 53.0017 77.4771 54.3198C77.9345 55.0192 78.1631 55.7859 78.1631 56.6198ZM73.9061 57.2049C74.4172 57.2049 74.6728 56.9897 74.6728 56.5593C74.6728 56.2499 74.5517 56.0011 74.3096 55.8128C74.0809 55.6245 73.7447 55.5304 73.3008 55.5304C72.8704 55.5304 72.44 55.7119 72.0096 56.0751C71.5792 56.4248 71.364 56.8014 71.364 57.2049H73.9061ZM86.3794 53.6944C86.4601 52.9412 86.9914 52.5646 87.9733 52.5646C88.4978 52.5646 88.8879 52.6049 89.1434 52.6856C89.399 52.7663 89.5738 52.9075 89.668 53.1093C89.7756 53.3111 89.8361 53.4926 89.8496 53.654C89.8765 53.802 89.8899 54.0306 89.8899 54.34V61.4014C89.8899 61.7108 89.8765 61.9461 89.8496 62.1075C89.8361 62.2555 89.7823 62.4304 89.6882 62.6321C89.4999 62.9818 89.0358 63.1567 88.2961 63.1567C87.5698 63.1567 87.0788 63.0692 86.8233 62.8944C86.5812 62.7061 86.4399 62.4371 86.3996 62.0874C85.9019 62.8002 85.068 63.1567 83.8978 63.1567C82.7411 63.1567 81.6651 62.6254 80.6698 61.5628C79.6744 60.5002 79.1768 59.2695 79.1768 57.8707C79.1768 56.4584 79.6744 55.2277 80.6698 54.1786C81.6785 53.116 82.7815 52.5847 83.9785 52.5847C84.4358 52.5847 84.8528 52.6654 85.2294 52.8268C85.606 52.9882 85.8683 53.1429 86.0162 53.2909C86.1642 53.4254 86.2853 53.5599 86.3794 53.6944ZM82.7075 57.8909C82.7075 58.3347 82.8823 58.7382 83.232 59.1014C83.5817 59.4511 84.0054 59.626 84.5031 59.626C85.0007 59.626 85.411 59.4444 85.7338 59.0812C86.07 58.7181 86.2382 58.3213 86.2382 57.8909C86.2382 57.447 86.0768 57.0368 85.754 56.6602C85.4446 56.2836 85.0209 56.0953 84.4829 56.0953C83.9584 56.0953 83.5279 56.2836 83.1917 56.6602C82.8689 57.0368 82.7075 57.447 82.7075 57.8909ZM97.712 52.5847C98.6401 52.5847 99.1848 52.8403 99.3462 53.3514C99.4269 53.607 99.4673 53.9432 99.4673 54.3602C99.4673 54.7771 99.4202 55.1134 99.326 55.369C99.2453 55.6111 99.1108 55.7859 98.9225 55.8935C98.6401 56.0549 98.2298 56.1356 97.6918 56.1356L96.4006 56.0549V61.4619C96.4006 61.973 96.3334 62.3564 96.1989 62.6119C96.0778 62.854 95.8828 63.0154 95.6138 63.0961C95.3582 63.1768 95.022 63.2172 94.605 63.2172C94.188 63.2172 93.8518 63.1768 93.5962 63.0961C93.3541 63.002 93.1793 62.8608 93.0717 62.6725C92.9641 62.4707 92.8968 62.2891 92.8699 62.1277C92.8565 61.9663 92.8497 61.7309 92.8497 61.4216V56.0751H92.1234C91.7737 56.0482 91.5249 55.9675 91.3769 55.833C91.1214 55.5774 90.9936 55.0865 90.9936 54.3602C90.9936 53.2573 91.3904 52.7058 92.1839 52.7058H92.8497V51.6365C92.8497 50.6008 93.2196 49.666 93.9594 48.8321C94.6991 47.9847 95.7684 47.5611 97.1673 47.5611C97.4766 47.5611 97.7053 47.5745 97.8532 47.6014C98.0146 47.6149 98.1962 47.6754 98.398 47.783C98.7611 47.9578 98.9427 48.4757 98.9427 49.3365C98.9427 49.9821 98.8284 50.4461 98.5997 50.7286C98.4114 50.9438 98.1155 51.0649 97.712 51.0918C97.591 51.0918 97.4027 51.0918 97.1471 51.0918C96.6494 51.0918 96.4006 51.2599 96.4006 51.5961V52.7058L97.712 52.5847Z" fill="#2EB07A"/>
</svg>
