<svg width="557" height="355" viewBox="0 0 557 355" fill="none" xmlns="http://www.w3.org/2000/svg">
<path fill-rule="evenodd" clip-rule="evenodd" d="M442.55 149.273L440.087 195.44C440 197.331 437.801 198.298 436.306 197.111L409.178 175.083C407.023 173.324 403.857 173.5 401.879 175.479C399.9 177.457 399.724 180.623 401.483 182.777L437.757 227.405C438.109 227.845 438.285 228.417 438.285 228.988L431.733 351.749C431.646 353.068 432.701 354.211 434.064 354.211H475.306C476.625 354.211 477.681 353.112 477.637 351.749L471.085 229.032C471.085 228.461 471.217 227.889 471.613 227.449L507.887 182.777C509.646 180.623 509.47 177.457 507.491 175.479C505.513 173.5 502.347 173.324 500.193 175.083L473.064 197.111C471.613 198.298 469.371 197.331 469.283 195.44L466.952 151.472C466.908 150.241 465.853 149.273 464.622 149.273H442.462H442.55ZM416.344 228.725C422.852 233.429 422.192 244.333 412.211 247.455C410.013 248.115 407.639 247.675 405.748 246.356C389.26 234.836 375.586 217.6 366.176 196.715C357.514 177.413 352.546 154.989 352.546 131.158C352.546 95.4997 363.67 63.0949 381.609 39.4838C400.164 15.0812 426.018 0 454.773 0C483.528 0 509.382 15.0812 527.937 39.4838C545.876 63.0949 557 95.5437 557 131.158C557 154.989 552.031 177.413 543.37 196.715C534.004 217.6 520.286 234.836 503.842 246.356C501.951 247.675 499.533 248.115 497.379 247.455C487.398 244.333 486.738 233.473 493.245 228.769C506.216 219.315 517.12 205.333 524.727 188.361C532.202 171.697 536.511 152.131 536.511 131.158C536.511 100.029 527.013 71.9766 511.712 51.839C497.027 32.4928 476.889 20.5333 454.861 20.5333C432.833 20.5333 412.739 32.4928 398.01 51.839C382.708 72.0205 373.211 100.029 373.211 131.158C373.211 152.131 377.52 171.697 384.995 188.361C392.645 205.333 403.506 219.315 416.476 228.769L416.344 228.725Z" fill="#9FB844"/>
<path d="M322.819 187.301C322.819 205.109 319.082 221.905 312.618 236.326C305.627 251.935 295.339 264.862 283.028 273.48C281.665 274.447 279.818 274.843 278.191 274.315C270.716 272.029 270.233 263.851 275.069 260.333C284.786 253.298 292.965 242.79 298.636 230.127C304.22 217.64 307.43 203.042 307.43 187.345C307.43 164.042 300.307 143.069 288.875 128.032C277.839 113.566 262.846 104.597 246.314 104.597C229.782 104.597 214.788 113.566 203.796 128.032C192.364 143.113 185.242 164.086 185.242 187.345C185.242 203.042 188.451 217.684 194.035 230.127C199.751 242.834 207.885 253.298 217.602 260.333C222.483 263.851 221.955 272.029 214.525 274.359C212.898 274.843 211.051 274.491 209.688 273.524C197.333 264.862 187.088 251.979 180.097 236.37C173.634 221.949 169.896 205.153 169.896 187.345C169.896 160.7 178.207 136.43 191.617 118.754C205.511 100.507 224.857 89.1636 246.314 89.1636C267.771 89.1636 287.161 100.464 301.055 118.754C314.465 136.43 322.775 160.7 322.775 187.345L322.819 187.301Z" fill="#745435"/>
<path d="M285.88 220.498C287.375 221.993 287.507 224.368 286.188 225.95L259.015 259.367C258.751 259.674 258.62 260.114 258.664 260.554L263.544 352.36C263.588 353.371 262.841 354.207 261.829 354.207H230.963C229.996 354.207 229.205 353.371 229.249 352.36L234.129 260.554C234.129 260.114 234.041 259.718 233.733 259.367L206.605 225.95C206.033 225.203 205.681 224.324 205.681 223.4C205.681 222.345 206.121 221.29 206.913 220.498C208.407 219.003 210.782 218.872 212.365 220.191L232.678 236.679C233.777 237.602 235.404 236.855 235.492 235.448L237.339 200.932H253.871C254.794 200.932 255.542 201.636 255.63 202.559L257.388 235.448C257.432 236.855 259.147 237.602 260.202 236.679L280.516 220.191C281.263 219.619 282.143 219.267 283.066 219.267C284.121 219.267 285.177 219.707 285.968 220.498H285.88Z" fill="#745435"/>
<path d="M122.848 220.021C122.848 234.355 119.858 247.853 114.67 259.461C109.042 272.036 100.776 282.369 90.883 289.316C89.7838 290.107 88.3329 290.415 87.0138 289.975C80.9901 288.129 80.5944 281.577 84.5076 278.719C92.334 273.047 98.8853 264.605 103.458 254.405C107.943 244.38 110.537 232.596 110.537 220.021C110.537 201.291 104.821 184.451 95.6316 172.315C86.794 160.664 74.7026 153.453 61.4241 153.453C48.1456 153.453 36.0982 160.664 27.2165 172.315C18.0271 184.407 12.3112 201.291 12.3112 220.021C12.3112 232.64 14.9053 244.38 19.3901 254.405C24.0068 264.605 30.5142 273.003 38.3406 278.719C42.2538 281.533 41.8581 288.085 35.8344 289.975C34.5153 290.371 33.0644 290.063 31.9652 289.316C22.0283 282.369 13.8061 271.992 8.17815 259.417C2.98986 247.809 0 234.311 0 219.977C0 198.565 6.68322 179.043 17.4555 164.841C28.6235 150.155 44.1444 141.054 61.4241 141.054C78.7037 141.054 94.2686 150.155 105.437 164.841C116.209 179.043 122.892 198.565 122.892 219.977L122.848 220.021Z" fill="#D05A5C"/>
<path d="M93.1166 246.707C94.3037 247.894 94.3916 249.785 93.3364 251.104L71.484 277.969C71.2642 278.233 71.1762 278.585 71.1762 278.936L75.0894 352.716C75.1334 353.551 74.5178 354.21 73.7264 354.21H48.8842C48.0927 354.21 47.4772 353.551 47.5211 352.716L51.4343 278.936C51.4343 278.585 51.3464 278.233 51.1266 277.969L29.3181 251.104C28.8345 250.489 28.5707 249.785 28.5707 249.038C28.5707 248.202 28.9224 247.367 29.538 246.707C30.7251 245.52 32.6158 245.432 33.9348 246.487L50.2472 259.722C51.1266 260.469 52.4456 259.854 52.5336 258.711L54.0285 230.967H67.307C68.0545 230.967 68.67 231.538 68.714 232.286L70.121 258.711C70.165 259.854 71.528 260.469 72.4074 259.722L88.7197 246.487C89.3353 246.004 90.0388 245.74 90.7862 245.74C91.6216 245.74 92.457 246.092 93.1166 246.707Z" fill="#D05A5C"/>
</svg>
