<svg width="95" height="94" viewBox="0 0 95 94" fill="none" xmlns="http://www.w3.org/2000/svg">
<path d="M43.8168 4.01206C45.798 1.8539 49.202 1.85389 51.1832 4.01206L65.8772 20.0178C66.3291 20.51 66.875 20.9066 67.4827 21.1843L87.2458 30.213C89.9106 31.4304 90.9624 34.6677 89.5222 37.219L78.8405 56.1398C78.512 56.7216 78.3035 57.3634 78.2272 58.0272L75.7475 79.613C75.4131 82.5236 72.6593 84.5244 69.7879 83.9429L48.4923 79.6309C47.8374 79.4983 47.1626 79.4983 46.5077 79.6309L25.2121 83.9429C22.3407 84.5244 19.5869 82.5236 19.2525 79.613L16.7728 58.0272C16.6965 57.3634 16.488 56.7216 16.1595 56.1398L5.47785 37.219C4.03757 34.6677 5.08943 31.4304 7.75422 30.213L27.5173 21.1843C28.125 20.9066 28.6709 20.51 29.1228 20.0178L43.8168 4.01206Z" fill="#FFE61B"/>
<path d="M32.5 40C34 42.2639 37.9 45.4333 41.5 40" stroke="black" stroke-linecap="round" stroke-linejoin="round"/>
<rect x="30.5" y="33" width="4" height="3" rx="1.5" fill="black"/>
<rect x="39.5" y="33" width="4" height="3" rx="1.5" fill="black"/>
</svg>
